<?xml version="1.0" encoding="UTF-8" standalone="no"?>
<!-- Created with Inkscape (http://www.inkscape.org/) -->

<svg
   xmlns:dc="http://purl.org/dc/elements/1.1/"
   xmlns:cc="http://creativecommons.org/ns#"
   xmlns:rdf="http://www.w3.org/1999/02/22-rdf-syntax-ns#"
   xmlns:svg="http://www.w3.org/2000/svg"
   xmlns="http://www.w3.org/2000/svg"
   xmlns:sodipodi="http://sodipodi.sourceforge.net/DTD/sodipodi-0.dtd"
   xmlns:inkscape="http://www.inkscape.org/namespaces/inkscape"
   version="1.1"
   id="svg2"
   width="356.48001"
   height="198.39999"
   viewBox="0 0 356.48001 198.39999"
   sodipodi:docname="LogoVectorizado.svg"
   inkscape:export-filename="C:\xampp\htdocs\Florida 2019\AUC-Catarroja\Guia de estilos\Imagenes\bitmap2.png"
   inkscape:export-xdpi="96.690697"
   inkscape:export-ydpi="96.690697"
   inkscape:version="0.92.3 (2405546, 2018-03-11)">
  <metadata
     id="metadata8">
    <rdf:RDF>
      <cc:Work
         rdf:about="">
        <dc:format>image/svg+xml</dc:format>
        <dc:type
           rdf:resource="http://purl.org/dc/dcmitype/StillImage" />
        <dc:title></dc:title>
      </cc:Work>
    </rdf:RDF>
  </metadata>
  <defs
     id="defs6" />
  <sodipodi:namedview
     pagecolor="#ffffff"
     bordercolor="#666666"
     borderopacity="1"
     objecttolerance="10"
     gridtolerance="10"
     guidetolerance="10"
     inkscape:pageopacity="0"
     inkscape:pageshadow="2"
     inkscape:window-width="1366"
     inkscape:window-height="745"
     id="namedview4"
     showgrid="false"
     inkscape:zoom="0.69226958"
     inkscape:cx="-31.868221"
     inkscape:cy="-182.76228"
     inkscape:window-x="-8"
     inkscape:window-y="-8"
     inkscape:window-maximized="1"
     inkscape:current-layer="g64" />
  <g
     id="g64"
     transform="translate(-309.85039,57.058697)">
    <ellipse
       style="opacity:1;fill:#ffffff;fill-opacity:1;stroke:none;stroke-width:0;stroke-miterlimit:4;stroke-dasharray:none;stroke-opacity:1;paint-order:markers fill stroke"
       id="path945-4"
       ry="91.005013"
       rx="94.616318"
       cy="300.23895"
       cx="-80.171097"
       inkscape:export-xdpi="96.690697"
       inkscape:export-ydpi="96.690697" />
    <ellipse
       style="opacity:1;fill:#ffffff;fill-opacity:1;stroke:none;stroke-width:0;stroke-miterlimit:4;stroke-dasharray:none;stroke-opacity:1;paint-order:markers fill stroke"
       id="path945-1"
       ry="91.005013"
       rx="94.616318"
       cy="301.68347"
       cx="158.17535"
       inkscape:export-xdpi="96.690697"
       inkscape:export-ydpi="96.690697" />
    <ellipse
       style="opacity:1;fill:#ffffff;fill-opacity:1;stroke:none;stroke-width:0;stroke-miterlimit:4;stroke-dasharray:none;stroke-opacity:1;paint-order:markers fill stroke"
       id="path945"
       ry="91.005013"
       rx="94.616318"
       cy="307.46155"
       cx="400.13312"
       inkscape:export-xdpi="96.690697"
       inkscape:export-ydpi="96.690697" />
    <path
       style="fill:#a4e2ea;stroke-width:1.27999997"
       d="m -145.64236,580.51256 c -16.45374,-6.29628 -27.69474,-16.12454 -34.87366,-30.49084 -5.56908,-11.1447 -6.94379,-19.71648 -6.12743,-38.2066 0.80533,-18.2405 4.12611,-32.92158 9.66377,-42.72342 4.2996,-7.61038 6.9344,-9.6458 10.11822,-7.81644 1.232,0.70788 11.20462,19.38962 22.16134,41.51496 l 19.92134,40.22788 7.27866,-13.75224 c 4.00328,-7.56374 7.27868,-14.0416 7.27868,-14.39526 0,-1.82846 24.89538,-50.13286 26.91188,-52.21702 2.2094,-2.2835 2.56736,-2.30718 5.53072,-0.3655 11.6225,7.61536 19.21378,55.82732 12.30986,78.1796 -5.27792,17.08792 -20.06208,32.8995 -36.65746,39.20496 -5.5478,2.1079 -11.05708,2.9644 -21.53502,3.34794 -12.46494,0.45626 -14.98626,0.1686 -21.9809,-2.50802 z m 302.25194,-2.48958 c -7.32076,-7.32076 -10.19102,-16.5948 -10.19102,-32.92786 0,-16.33308 2.87026,-25.60712 10.19102,-32.92786 3.7676,-3.7676 6.55954,-5.47214 8.96306,-5.47214 12.57558,0 22.2254,19.60344 20.79268,42.24 -0.88492,13.98158 -3.77462,21.98046 -10.4622,28.96 -7.33178,7.65188 -11.7403,7.68108 -19.29354,0.1278 z m 115.88898,2.62926 c -18.06358,-6.33338 -30.40208,-16.97372 -37.99966,-32.76972 -3.86364,-8.03284 -4.6808,-11.27536 -5.2186,-20.70782 -0.77192,-13.53822 0.97626,-21.8853 7.02626,-33.54836 7.892,-15.21404 22.25578,-26.90742 38.13172,-31.04258 37.77194,-9.83834 75.69138,16.46776 78.34586,54.35136 1.84368,26.31256 -12.10954,49.59538 -36.7353,61.29774 -8.74226,4.15438 -10.8106,4.61144 -22.43028,4.95644 -10.68666,0.3173 -14.17366,-0.1016 -21.12,-2.53706 z m 31.40348,-42.5435 c 15.53504,-11.84916 7.11872,-36.53362 -12.45632,-36.53362 -7.35016,0 -12.2476,2.23326 -16.82376,7.6717 -8.35374,9.92784 -4.54746,26.13174 7.41314,31.55878 6.19084,2.80906 16.27962,1.5648 21.86694,-2.69686 z m 107.40886,44.40678 c -6.79084,-4.73866 -12.20212,-19.47368 -15.45394,-42.08142 -1.75808,-12.22272 -1.87368,-16.57168 -0.67022,-25.21462 2.96432,-21.289 16.24788,-39.50704 35.88298,-49.21244 l 9.61366,-4.75192 h 17.34758 17.3476 l 9.48028,4.91696 c 24.10746,12.50332 34.60222,31.47672 34.6575,62.657 0.0374,21.0642 -6.26396,43.99908 -14.16962,51.57318 -2.96066,2.8365 -4.31526,3.37674 -6.0147,2.39872 -1.2064,-0.69426 -10.83346,-18.65592 -21.39346,-39.9148 -10.56,-21.25886 -19.918,-38.67468 -20.79558,-38.70178 -0.87756,-0.0272 -9.73074,16.22272 -19.6737,36.11072 -21.44166,42.88778 -22.57666,44.71972 -26.15838,42.2204 z M -9.0478158,576.96598 C -18.74812,563.57512 -23.74292,524.93672 -18.30756,505.33512 c 4.49102,-16.19606 17.86328418,-31.54968 33.952644,-38.98342 27.18912,-12.56216 57.74426,-4.75612 75.7827,19.36046 8.47686,11.33316 11.063136,19.16536 11.789456,35.70296 1.29204,29.41874 -8.519416,61.84372 -18.321376,60.54848 -2.48122,-0.32788 -5.8991,-6.42142 -21.90858,-39.05966 -15.38112,-31.3572 -19.42092,-38.61988 -21.35968,-38.4 -1.76352,0.20002 -7.47366,10.3479 -21.76,38.67118 -21.7958198,43.2112 -21.9558798,43.39824 -28.9154198,33.79086 z M 157.645,488.88912 c -8.41138,-3.9235 -13.25156,-13.93364 -11.21682,-23.1978 0.49334,-2.24616 2.91506,-6.3177 5.3816,-9.04786 10.70248,-11.84636 26.61238,-8.27626 33.20274,7.45054 2.3763,5.6706 2.16442,9.8438 -0.79416,15.64312 -4.92868,9.66102 -16.75222,13.7331 -26.57336,9.152 z M 284.33856,453.9329 c -2.52526,-1.2179 -2.87652,-2.3503 -2.85188,-9.19338 0.0566,-15.6882 12.45236,-33.2056 20.46344,-28.91822 3.74928,2.00656 3.1207,5.33698 -1.93156,10.23382 -5.32278,5.15906 -5.54206,7.04214 -1.28,10.9921 5.38564,4.99124 3.47604,12.78134 -4.00792,16.3502 -5.02846,2.3979 -6.3854,2.46782 -10.39208,0.53548 z m 100.95536,-31.88058 c -39.03878,-6.4843 -72.93086,-31.93272 -88.04604,-66.1108 -8.92964,-20.1915 -11.4036,-51.59826 -5.71932,-72.6064 11.11828,-41.09114 43.78198,-72.4454 85.53252,-82.10363 14.9463,-3.45756 35.89778,-2.95277 51.94074,1.25141 33.0994,8.67395 59.31328,29.76358 73.45018,59.09222 7.2438,15.02814 10.6753,28.72238 11.5467,46.08 0.62068,12.3634 0.29226,15.79662 -2.69374,28.16 -4.00212,16.57066 -8.4304,26.63318 -17.48408,39.72978 -23.10106,33.41688 -68.97762,53.0765 -108.52696,46.50742 z m -28.76432,-38.9021 c 1.51308,-1.6599 3.75324,-6.07736 4.97816,-9.81656 2.70354,-8.25294 8.35024,-19.7251 14.37176,-29.19854 9.1501,-14.39548 26.60538,-37.09512 28.5344,-37.10734 1.70218,-0.01 1.85918,1.25672 1.06852,8.62734 -0.50976,4.752 -1.31026,10.16088 -1.7789,12.01974 -1.13362,4.49644 -6.56318,9.39292 -12.53032,11.3001 -5.5377,1.7699 -9.06632,6.20034 -7.78914,9.77982 1.45866,4.08806 4.5687,6.90034 7.63102,6.90034 5.05072,0 23.71576,-8.0025 25.68894,-11.01394 1.01852,-1.55448 3.23494,-12.06628 4.92534,-23.35956 4.8938,-32.69456 8.83198,-52.94446 10.41502,-53.55348 2.76526,-1.06384 12.26906,2.34552 15.47498,5.55144 2.77682,2.77682 3.12566,4.04834 2.60298,9.4879 -0.37886,3.94288 -1.86566,8.10258 -3.99368,11.1733 -5.16388,7.4515 -3.95094,11.79434 3.29408,11.79434 9.03718,0 19.55902,-29.9393 13.09304,-37.25556 -1.37348,-1.55408 -7.68124,-5.24794 -14.01724,-8.20856 l -11.52,-5.38294 -19.2,-0.70288 c -21.38812,-0.78298 -26.45912,0.1882 -32.825,6.28718 -4.42344,4.23794 -22.855,37.47186 -22.855,41.20986 0,3.50248 3.40422,6.68566 6.11704,5.71982 4.05504,-1.4437 5.25556,-3.09648 13.1462,-18.09858 7.70038,-14.6403 13.08918,-22.04258 14.8008,-20.33096 1.4614,1.4614 -1.9032,15.17592 -5.71468,23.29378 -1.9907,4.23986 -9.08964,14.97334 -15.77544,23.85216 -13.71792,18.21762 -18.97042,27.09138 -26.52252,44.8082 -7.27398,17.06436 -7.61166,19.3646 -3.45312,23.52314 3.89464,3.89462 7.45444,3.50368 11.83276,-1.29956 z m 63.69426,-134.13294 c 1.3873,-1.01442 2.55292,-3.96976 2.94794,-7.47438 0.58404,-5.1817 0.28042,-6.08989 -2.86256,-8.56216 -8.60282,-6.76696 -19.3214,0.52156 -15.92068,10.82588 2.08226,6.30934 10.53084,9.08938 15.8353,5.21066 z M 146.11512,417.0087 C 133.42428,415.47222 114.5337,408.98314 102.86226,402.15094 91.506884,395.50378 76.115744,381.3407 68.213804,370.2671 29.107064,315.46394 47.790024,237.27313 107.3045,206.66697 c 49.39168,-25.40037 107.40676,-13.5767 141.31226,28.79991 9.67172,12.08816 17.86506,28.03522 21.4495,41.74806 3.24606,12.41838 4.56336,32.79178 2.69638,41.70224 -0.76726,3.66188 -2.06158,10.11394 -2.87626,14.33794 -1.93548,10.0352 -7.23092,22.63408 -13.48724,32.08872 -6.74856,10.19856 -21.15648,25.20552 -30.81944,32.10088 -21.5554,15.3816 -52.03296,22.8851 -79.46458,19.56398 z m 29.74344,-52.8561 c 26.47742,-7.08332 45.47334,-31.4759 45.4248,-58.3298 -0.031,-17.15338 -6.19444,-31.65174 -18.46434,-43.4339 -7.71072,-7.40422 -17.08854,-12.93324 -25.36046,-14.95216 -4.10626,-1.00222 -4.44604,0.31476 -1.53404,5.94592 1.09226,2.11224 1.66544,4.85022 1.27372,6.08442 -0.94648,2.98208 -11.23396,7.88118 -16.41392,7.81664 -4.60592,-0.0574 -17.8749,-5.356 -18.56006,-7.41146 -0.24264,-0.72796 0.4578,-3.06204 1.55656,-5.1868 2.94614,-5.6972 2.63846,-8.19188 -0.88226,-7.15316 -13.54118,3.99504 -28.50624,15.83046 -35.44764,28.0345 -6.12308,10.76526 -8.164576,19.99648 -7.44874,33.6817 0.56658,10.83178 1.13738,13.0161 5.92746,22.68292 3.78828,7.64504 7.20156,12.4061 11.96366,16.68764 15.92798,14.32062 39.19368,20.55536 57.96526,15.53354 z m -43.60316,-7.9318 c -5.80602,-2.86518 -13.39898,-9.46986 -14.64028,-12.73474 -0.6373,-1.67618 -0.5323,-5.05068 0.25344,-8.14624 1.25092,-4.9283 1.64292,-5.2847 5.81248,-5.2847 6.30584,0 16.54106,5.98196 21.62298,12.63756 5.39678,7.06794 5.42886,9.76066 0.1546,12.97648 -4.95796,3.02292 -7.94268,3.14762 -13.20316,0.55164 z m 43.92316,-0.65284 c -2.64,-1.3937 -4.8,-3.17012 -4.8,-3.9476 0,-2.65072 7.91818,-15.26246 10.68326,-17.01584 1.51622,-0.96146 6.0947,-2.47584 10.17442,-3.36534 8.68466,-1.89348 10.3837,-0.90848 11.51896,6.67798 0.8954,5.98358 -0.88346,8.47508 -10.75948,15.07004 -8.8607,5.91694 -10.129,6.11158 -16.81716,2.58076 z M 149.45234,320.9924 c -1.60656,-0.99292 -7.51378,-17.03558 -7.51378,-20.40574 0,-1.45344 2.76892,-4.66334 6.72,-7.79026 10.84944,-8.5863 11.43842,-8.68416 19.37422,-3.21856 11.96962,8.2438 11.95888,8.2191 8.44598,19.42038 -1.65912,5.29036 -3.62942,10.11408 -4.3784,10.7194 -1.64254,1.32744 -20.81654,2.40668 -22.64802,1.27478 z m -42.454,-16.27124 c -3.6486,-3.7365 -4.73074,-5.87292 -4.70046,-9.28 0.0594,-6.67932 5.16336,-18.15146 8.92068,-20.05074 4.1172,-2.08118 10.83384,-2.11086 12.51546,-0.0554 1.15192,1.40808 2.1683,11.89482 1.72336,17.78108 -0.1556,2.05772 -11.50836,16.45892 -12.97496,16.45892 -0.40938,0 -2.87722,-2.18428 -5.48408,-4.85396 z m 96.99606,1.50694 c -6.10492,-6.58734 -10.89852,-25.9662 -7.7023,-31.1378 1.79848,-2.91 12.295,-0.86992 15.66156,3.04392 3.6487,4.24186 7.16028,16.05966 6.0667,20.41676 -0.82328,3.2802 -7.72552,11.02414 -9.82592,11.02414 -0.60396,0 -2.49398,-1.50616 -4.20004,-3.34702 z M -96.14144,409.82224 c -19.95236,-3.26882 -32.38056,-7.90912 -47.66532,-17.79678 -41.30844,-26.7223 -59.88264,-81.40622 -43.75589,-128.82084 12.33965,-36.28007 41.59931,-62.92982 80.64931,-73.45552 13.53216,-3.64752 42.44454,-3.34604 56.2119,0.58613 39.18858,11.19289 69.572464,42.08167 80.147984,81.47989 3.8448,14.3235 3.88004,39.32624 0.0752,53.42996 -5.81904,21.57044 -12.8325,34.67324 -26.3412398,49.21162 -22.2057042,23.89824 -51.2384242,36.46038 -83.3220442,36.05252 -7.04,-0.0894 -14.24,-0.39864 -16,-0.68698 z m 24.43068,-45.40958 c 14.23296,-6.5769 21.60564,-17.66834 22.66952,-34.10394 0.55284,-8.54114 0.83148,-9.31312 3.23394,-8.96 1.80236,0.2649 5.2704,4.77004 11.03012,14.32862 4.62062,7.6682 9.3632,14.54904 10.53904,15.29074 3.36438,2.1222 8.7367,-0.8883 8.7367,-4.8958 0,-3.63374 -16.52818,-32.0661 -20.65828,-35.53716 -1.86898,-1.5707 -4.88832,-2.24 -10.10532,-2.24 -8.03294,0 -9.5909,-0.87418 -21.50576,-12.06696 -5.6032,-5.26362 -11.30138,-15.00532 -14.27982,-24.41304 -0.89154,-2.816 -2.5256,-6.68826 -3.63124,-8.60506 -1.8845,-3.267 -1.82462,-3.81536 0.95692,-8.76444 4.0282,-7.1672 3.12376,-14.49667 -2.39768,-19.43049 -3.20276,-2.86191 -5.1559,-3.52 -10.44702,-3.52 -5.69438,0 -7.05178,0.54397 -10.8598,4.352 -3.67868,3.67866 -4.352,5.25637 -4.352,10.19727 0,5.1136 0.721,6.6571 5.76,12.33072 3.168,3.567 5.76,6.8013 5.76,7.18732 0,0.38602 -3.6169,4.2548 -8.03754,8.59728 -10.43284,10.24836 -13.84866,17.49088 -14.13998,29.98082 -0.1946,8.34524 0.1078,9.76168 2.41738,11.32318 2.24102,1.51512 3.00318,1.51914 5.04428,0.0266 1.80694,-1.32128 2.6345,-4.1673 3.33048,-11.45362 1.01512,-10.6273 3.41714,-15.86076 9.26356,-20.1832 3.66148,-2.70706 3.86718,-2.72422 5.52248,-0.46048 2.94474,4.02718 2.06276,6.67016 -2.7567,8.26074 -5.6085,1.851 -8.32396,5.63782 -8.32396,11.60816 v 4.63724 l 7.22036,-3.64204 c 11.22864,-5.66384 22.43954,-4.64876 31.53678,2.85546 13.67736,11.28234 14.21398,30.22634 1.201,42.39846 -19.08866,17.8552 -47.63814,4.99436 -47.63814,-21.4598 v -7.9012 l -4.7328,-0.76802 c -2.60302,-0.42242 -5.05102,-0.44672 -5.44,-0.054 -0.38896,0.39272 -0.66634,5.12696 -0.61636,10.52054 0.0738,7.9637 0.72444,11.04006 3.46256,16.37064 5.3056,10.32902 13.69634,17.34294 25.2466,21.10402 6.1683,2.00856 19.44314,0.57706 26.99068,-2.91058 z"
       id="path78"
       inkscape:connector-curvature="0"
       inkscape:export-xdpi="96.690697"
       inkscape:export-ydpi="96.690697" />
    <path
       style="fill:#5fd9eb;stroke-width:1.27999997"
       d="m -143.50146,580.57518 c -22.36538,-7.63452 -36.43988,-22.88848 -41.71614,-45.21194 -2.41353,-10.21144 -1.80703,-31.13528 1.32316,-45.64868 3.54568,-16.43976 11.785,-30.5276 16.74174,-28.62552 1.14346,0.43878 11.04046,19.04762 21.99334,41.353 18.3229,37.31428 20.06082,40.35772 21.74738,38.08414 1.00818,-1.3591 10.20634,-19.29656 20.44038,-39.86106 10.23404,-20.56448 19.43036,-38.07302 20.43626,-38.90788 2.3226,-1.92756 7.25026,2.36964 10.9165,9.51986 6.35896,12.40174 10.6332,47.86392 7.54928,62.63412 -2.48616,11.90732 -9.34098,24.08926 -18.13806,32.2338 -12.74532,11.7999 -23.39636,16.05688 -42.09384,16.8239 -8.71462,0.35752 -12.53586,-0.119 -19.2,-2.39374 z m 303.2293,0.04 c -9.68346,-6.41216 -15.69814,-27.88968 -12.72718,-45.44678 2.64536,-15.6329 11.32994,-28.47322 19.2579,-28.47322 4.27594,0 10.85414,5.8714 14.44516,12.89308 9.88064,19.32004 5.64886,51.83562 -7.93786,60.9917 -5.41106,3.64652 -7.5755,3.65236 -13.03802,0.0352 z m 116.61072,0.84288 c -22.48642,-5.96856 -38.811,-21.80228 -45.31792,-43.9552 -7.58986,-25.83982 6.85162,-57.60376 31.79418,-69.93102 37.84366,-18.70336 82.15914,3.83226 89.28814,45.40542 3.07634,17.93984 -3.74486,38.25288 -17.41456,51.85932 -15.91858,15.84488 -37.7964,22.07698 -58.34984,16.62148 z m 26.78094,-42.47562 c 5.6134,-4.1562 9.05906,-10.39148 9.05906,-16.39322 0,-7.21618 -1.40722,-10.62324 -6.40662,-15.51106 -10.1518,-9.92526 -27.8675,-7.18294 -33.75556,5.22526 -4.24318,8.9418 -1.62112,21.2483 5.62682,26.4093 7.36706,5.24582 18.59504,5.36468 25.4763,0.26972 z m 194.1377,41.63274 c -1.02322,-1.584 -10.12976,-19.584 -20.23678,-40 -10.24812,-20.70104 -19.12612,-37.12 -20.0714,-37.12 -0.93774,0 -10.35212,17.13184 -21.07272,38.34724 -10.65776,21.09098 -20.35202,38.92278 -21.5428,39.6262 -7.51628,4.43996 -17.15238,-21.49628 -18.54926,-49.9266 -1.23318,-25.09856 3.06962,-37.5861 18.04392,-52.36684 10.72138,-10.58278 19.74016,-15.34836 32.91498,-17.39252 21.56372,-3.34572 40.3074,2.35904 54.89628,16.70806 13.10032,12.88494 18.75412,30.98608 17.4052,55.72446 -1.0393,19.06016 -7.03544,39.10718 -13.87456,46.38708 -3.43348,3.6548 -5.55808,3.65826 -7.91286,0.012 z M -7.0423758,579.04426 c -4.6347442,-5.00096 -7.1808042,-11.22242 -9.7755042,-23.8869 -3.30188,-16.1162 -4.27616,-32.12706 -2.59852,-42.70218 5.53412,-34.88458 42.028824,-58.7758 76.190204,-49.87788 10.93024,2.84696 19.47144,7.85268 28.3009,16.58622 9.66956,9.56448 15.325936,20.68492 17.395476,34.19932 3.88798,25.38924 -6.667856,68.21234 -16.814236,68.21234 -2.73686,0 -5.13658,-4.17346 -22.68412,-39.45094 -12.66842,-25.46854 -20.2238,-39.30532 -21.31732,-39.04 -0.93162,0.22602 -10.63094,17.97894 -21.55408,39.45094 -12.3066398,24.19164 -20.65469982,39.1958 -21.9490998,39.44962 -1.14888,0.2253 -3.48604,-1.09794 -5.1937,-2.94054 z M 160.67426,489.42974 c -13.9935,-4.90226 -18.68786,-20.39388 -9.65834,-31.87304 5.1394,-6.53368 15.18548,-9.0865 23.42704,-5.95308 3.93678,1.49676 9.59218,9.74032 11.01736,16.05936 3.0992,13.7414 -11.38522,26.4614 -24.78606,21.76676 z m 122.3203,-36.75056 c -4.56538,-4.56538 0.24962,-23.15498 8.12694,-31.3762 5.45986,-5.69824 9.36978,-6.85396 12.09174,-3.57422 1.27982,1.5421 1.18028,2.5361 -0.51278,5.12 -1.1555,1.76354 -2.65036,3.20642 -3.3219,3.20642 -0.67154,0 -2.18336,1.46878 -3.3596,3.26394 -2.08344,3.1797 -2.0313,3.3747 2.01978,7.55436 3.55352,3.66628 4.02874,4.8808 3.26698,8.34914 -1.50944,6.87242 -13.86424,11.90348 -18.31116,7.45656 z m 107.79718,-30.54086 c -13.96038,-1.34918 -26.5959,-5.33446 -43.25234,-13.64194 -11.8824,-5.92638 -15.55932,-8.56782 -25.12822,-18.0517 -23.43346,-23.22528 -33.30104,-46.92366 -33.2504,-79.85554 0.025,-16.24958 1.99644,-27.38472 7.11256,-40.17296 12.75902,-31.89255 38.62048,-55.69355 72.22522,-66.47081 15.39068,-4.93589 39.05496,-5.81981 55.90044,-2.08803 40.36374,8.94179 70.953,35.91181 83.38294,73.51728 4.36986,13.22058 7.2629,34.87496 6.01016,44.98624 -1.15114,9.29136 -5.39994,26.57176 -8.41248,34.21464 -2.8391,7.20284 -11.90308,21.76066 -18.76686,30.1418 -14.45526,17.65084 -46.01472,34.20808 -70.1142,36.78448 -4.224,0.45156 -9.408,1.00452 -11.52,1.22876 -2.112,0.22426 -8.49608,-0.0422 -14.18682,-0.59222 z m -34.58042,-37.43958 c 1.626,-1.62604 4.1928,-6.66604 5.70396,-11.2 4.17712,-12.5328 11.20118,-25.2465 23.48446,-42.50752 13.38942,-18.81542 18.39816,-24.90094 19.55928,-23.76412 0.4786,0.4686 0.29716,5.59176 -0.4032,11.38482 -1.54366,12.76854 -3.81896,16.24542 -12.92356,19.7484 -7.34008,2.8241 -9.68506,5.64504 -8.52728,10.25802 1.08616,4.32752 4.24816,7.03752 8.20502,7.03208 4.70006,-0.006 21.6299,-6.74774 24.729,-9.84684 1.9914,-1.99142 3.32438,-7.6595 6.28792,-26.7378 4.3608,-28.07346 8.50998,-49.30098 9.9101,-50.70112 1.72066,-1.72066 10.81582,1.6478 14.56068,5.39268 2.12408,2.12406 3.62086,5.00138 3.62086,6.96044 0,3.95658 -3.13132,11.8727 -5.91168,14.94494 -2.79976,3.0937 -1.72144,7.73502 2.3227,9.99756 3.23428,1.80944 3.65776,1.73648 6.74268,-1.16166 4.43162,-4.16328 9.0642,-14.30978 10.9672,-24.02082 2.15174,-10.9804 0.59778,-13.07338 -15.19318,-20.46318 l -12.36772,-5.7878 -20.31346,-0.52574 c -29.45592,-0.76236 -30.25924,-0.26468 -45.76706,28.35404 -4.57776,8.448 -8.73144,16.44916 -9.23038,17.78036 -1.1412,3.04474 2.2514,8.47436 5.2604,8.41894 3.90724,-0.072 6.04238,-2.83776 15.40406,-19.954 8.35916,-15.2833 12.27734,-20.91988 13.5883,-19.5477 0.26398,0.27632 -0.018,3.6187 -0.62624,7.4275 -1.671,10.4609 -8.57358,23.40548 -21.56154,40.4349 -11.5023,15.08148 -21.95476,33.54364 -28.7484,50.77832 -4.09128,10.37908 -4.19482,13.4541 -0.58256,17.29918 3.5453,3.7738 8.03962,3.77612 11.80964,0.006 z m 65.29104,-136.88362 c 3.8991,-6.02815 3.90902,-9.80115 0.0364,-13.84329 -4.71984,-4.92647 -10.84388,-5.10938 -15.4906,-0.46267 -2.74442,2.74443 -3.16834,4.07923 -2.54074,8 0.9593,5.99274 4.84688,9.18596 11.18348,9.18596 3.7267,0 5.40868,-0.71116 6.8115,-2.88 z M 139.46648,415.78488 C 115.9472,410.8277 96.205944,399.93622 79.218564,382.54544 c -11.71228,-11.99038 -20.3157,-26.1123 -25.73998,-42.25032 -3.54264,-10.53988 -4.16892,-14.41936 -4.70052,-29.11808 -1.26186,-34.88962 8.92214,-61.90038 31.94276,-84.72101 21.655476,-21.46733 48.476836,-32.0809 81.071096,-32.0809 32.06212,0 55.73838,9.98823 78.70664,33.20374 18.9745,19.17875 29.04268,39.79151 32.09786,65.71457 1.25312,10.63252 1.1453,14.66178 -0.71572,26.74686 -2.83688,18.42206 -4.87924,25.2074 -11.07606,36.79796 -15.04736,28.14474 -40.45572,48.5904 -70.86608,57.02474 -9.03166,2.50494 -41.788,3.75224 -50.47208,1.92188 z m 45.99916,-54.5463 c 9.61178,-4.45452 22.88268,-16.12708 27.72008,-24.38148 12.97812,-22.14548 10.24156,-52.25146 -6.51464,-71.67022 -10.20394,-11.82536 -30.24144,-20.89176 -46.17252,-20.89176 -15.91266,0 -35.88022,9.02616 -46.21652,20.89176 -6.47362,7.43138 -12.95736,21.63822 -14.562356,31.90824 -3.64664,23.33418 8.233716,48.08526 28.701636,59.79582 12.69742,7.26472 20.0417,9.05616 35.27724,8.60488 11.77264,-0.3487 14.47306,-0.87684 21.76708,-4.25724 z m -4.48708,-4.24238 c -4.31324,-1.33028 -9.6,-4.25636 -9.6,-5.31336 0,-1.78306 5.4561,-10.65008 8.79184,-14.28814 4.9587,-5.40808 19.59622,-8.50284 22.03048,-4.65784 0.62616,0.98904 1.1473,3.84526 1.15808,6.34716 0.0204,4.75376 -3.6116,9.20538 -12.1404,14.87972 -5.0559,3.36376 -7.15256,3.98466 -10.24,3.03246 z m -54.48268,-4.89554 c -7.93484,-5.54352 -9.8925,-9.52274 -8.15182,-16.56972 1.36384,-5.5214 4.2091,-6.58042 11.34882,-4.2241 5.40676,1.7844 15.4902,10.52388 18.20954,15.7825 1.97986,3.82866 1.94008,4.0253 -1.3943,6.89344 -5.30302,4.56144 -11.6425,3.96524 -20.01224,-1.88212 z m 21.40896,-34.52554 c -3.54448,-7.0114 -6.16156,-16.83836 -5.02514,-18.86902 1.24064,-2.21692 15.73272,-13.4163 17.38822,-13.43752 1.161,-0.014 9.7347,5.9253 15.37988,10.65574 l 3.62924,3.04118 -2.70766,9.0918 c -3.68776,12.38282 -4.53024,13.03782 -16.76938,13.03782 -9.7506,0 -10.17994,-0.127 -11.89516,-3.52 z M 106.8875,304.45144 c -2.54592,-2.81802 -4.62894,-6.3674 -4.62894,-7.8875 0,-4.96918 4.24222,-16.36042 7.08864,-19.0345 3.69232,-3.46878 11.06474,-4.65808 13.53876,-2.18406 2.88608,2.88608 3.00906,17.37604 0.183,21.56772 -2.63806,3.91292 -10.25424,12.66202 -11.0224,12.66202 -0.29158,0 -2.61318,-2.30566 -5.1591,-5.12368 z m 96.63618,0.53746 c -5.96572,-7.5842 -9.81512,-24.84902 -6.65362,-29.84204 1.4903,-2.35366 9.72532,-1.07716 13.24804,2.05356 3.8401,3.4128 7.2805,11.82354 7.31236,17.8765 0.0206,3.9067 -0.86216,6.3998 -3.28568,9.28 -4.04414,4.8062 -7.1904,4.9934 -10.6211,0.63198 z m -53.15564,-40.90506 c -4.16378,-1.7287 -7.85392,-3.42648 -8.20028,-3.77284 -1.40546,-1.40546 4.29454,-11.2192 7.146,-12.30332 4.05256,-1.54078 17.23022,-1.46732 21.40338,0.1194 3.51654,1.33698 7.80038,9.29692 6.3053,11.71604 -1.20568,1.95084 -13.49782,7.47468 -16.52388,7.4255 -1.408,-0.0228 -5.96674,-1.45598 -10.13052,-3.18468 z M -92.94144,409.78996 c -31.28594,-4.8688 -50.90248,-14.59456 -69.87192,-34.64208 -13.93546,-14.72744 -21.0358,-27.8521 -26.99704,-49.9028 -4.16659,-15.41228 -3.8542,-40.65278 0.68949,-55.7107 13.59161,-45.04298 48.77281,-75.08082 95.55347,-81.58391 25.60482,-3.55939 53.61946,3.11914 75.6816,18.04207 47.809324,32.33842 63.454744,93.30588 37.260284,145.19684 -14.0026998,27.73918 -42.850644,49.91478 -73.275884,56.32766 -9.67436,2.03912 -32.13842,3.34698 -39.04,2.27292 z m 19.02026,-43.93752 c 8.77068,-3.28154 17.69192,-11.06458 21.35416,-18.62974 1.75534,-3.62604 3.13178,-9.5654 3.6272,-15.65124 1.11344,-13.67802 3.0123,-13.56796 11.62456,0.6738 9.60298,15.88008 12.5628,19.56986 15.69816,19.56986 3.00632,0 7.39566,-3.40276 7.39566,-5.73336 0,-2.33434 -18.57884,-33.00592 -21.69554,-35.81688 -2.0683,-1.8654 -4.68104,-2.52302 -10.17106,-2.56 -6.74456,-0.0454 -8.02768,-0.54342 -14.73706,-5.71984 -10.30302,-7.94894 -14.30038,-13.26948 -18.8202,-25.04992 -2.16084,-5.632 -4.79712,-12.0931 -5.8584,-14.35802 -1.79948,-3.84034 -1.7485,-4.34826 0.75632,-7.53262 5.89742,-7.49734 2.04474,-19.5734 -7.50682,-23.52978 -8.18672,-3.39105 -19.21216,2.68498 -20.98848,11.56658 -0.98828,4.94138 2.44826,13.2694 7.32736,17.75698 1.85562,1.7067 3.3666,4.0107 3.35772,5.11998 -0.008,1.1093 -3.19236,4.80256 -7.07436,8.20726 -9.81058,8.6043 -13.67184,16.60532 -14.40182,29.84226 -0.5338,9.67976 -0.376,10.53932 2.18686,11.91092 1.51918,0.81304 3.89108,1.11998 5.27084,0.68204 2.72254,-0.8641 3.24794,-2.52696 4.37784,-13.85584 0.8887,-8.91032 3.0272,-13.43196 8.5509,-18.07984 l 4.10606,-3.45502 1.65456,2.98256 c 2.5602,4.61508 2.1157,5.6659 -3.05472,7.22132 -5.57016,1.6757 -7.33464,4.03476 -8.59426,11.49044 -1.0321,6.1089 -0.63478,6.34734 4.92316,2.95428 10.64568,-6.49902 22.07718,-6.5302 31.80502,-0.0868 18.46812,12.23278 15.91502,40.68392 -4.41282,49.17534 -6.39588,2.67172 -17.08754,2.47378 -23.49166,-0.4349 -10.23306,-4.64774 -17.11394,-17.81898 -15.68834,-30.03028 0.4548,-3.89568 0.1504,-4.66692 -1.84228,-4.66692 -1.31292,0 -3.57452,-0.63546 -5.02576,-1.41216 -4.03678,-2.1604 -5.06684,0.64222 -4.51772,12.29216 0.76012,16.1271 7.61362,26.82648 21.68906,33.86006 9.75362,4.87394 21.36506,5.3421 32.17586,1.29726 z"
       id="path76"
       inkscape:connector-curvature="0"
       inkscape:export-xdpi="96.690697"
       inkscape:export-ydpi="96.690697" />
    <path
       style="fill:#00c4e1;stroke-width:1.27999997"
       d="m 282.4357,582.23696 c -40.58324,-7.26088 -62.7555,-44.53592 -48.57478,-81.6618 7.97452,-20.8777 25.35586,-34.92848 47.91486,-38.73354 25.20252,-4.25096 52.38728,9.74384 63.95494,32.9242 8.3741,16.7808 8.9464,32.5883 1.82268,50.3436 -10.0291,24.99668 -39.38126,41.73214 -65.1177,37.12754 z m 17.68346,-40.84914 c 17.56652,-7.97832 16.69354,-32.33816 -1.4066,-39.25066 -11.22216,-4.2858 -22.78766,0.66038 -27.74408,11.86518 -4.54844,10.28248 -0.1692,21.5673 10.45164,26.93278 6.8892,3.48032 11.77258,3.59854 18.69904,0.4527 z m -446.18062,38.08774 c -18.95676,-7.42986 -30.69048,-19.52464 -37.29224,-38.4397 -5.1275,-14.6911 -3.21088,-46.39322 3.94902,-65.31916 3.15096,-8.32898 9.10016,-15.4829 11.96226,-14.3846 1.63444,0.62718 32.05408,60.1062 38.74786,75.76302 1.27918,2.992 3.0451,5.44 3.92426,5.44 0.87916,0 10.58056,-18.144 21.55864,-40.32 22.3438,-45.13506 22.14314,-44.89734 28.90322,-34.24 4.89632,7.71908 7.04298,15.00812 9.66122,32.80494 4.68012,31.81218 -2.6378,54.1184 -22.86174,69.6863 -11.1741,8.60156 -18.16798,10.79114 -36.1525,11.31824 -13.37004,0.39186 -16.27204,0.0928 -22.4,-2.30904 z M -7.7623758,577.41512 C -15.23836,568.37004 -19.9002,545.39358 -19.14614,521.30888 c 0.43324,-13.83764 0.84282,-16.02616 4.41164,-23.57376 4.273204,-9.03722 13.96458418,-20.48222 22.1433242,-26.1501 7.2453598,-5.02104 20.4584598,-9.54212 30.5748998,-10.4617 26.77738,-2.43402 55.77462,18.34606 62.874496,45.05732 1.85286,6.97088 1.91796,33.91324 0.1032,42.75448 -4.444876,21.65582 -11.385156,34.96324 -16.942956,32.48668 -0.88,-0.39212 -10.24,-18.20348 -20.8,-39.58082 -14.06874,-28.48028 -19.7975,-38.88362 -21.43574,-38.92686 -1.66914,-0.044 -6.9745,9.42926 -20.93454,37.381 -17.7335998,35.50734 -21.35217982,41.92 -23.6549198,41.92 -0.54364,0 -2.77372,-2.16 -4.95574,-4.8 z m 166.0497558,1.91364 c -1.92014,-1.58052 -5.08814,-6.32964 -7.04,-10.55364 -3.27956,-7.0973 -3.54882,-8.89398 -3.54882,-23.68 0,-14.69664 0.28068,-16.59892 3.4456,-23.35218 4.55396,-9.71716 9.0008,-13.76782 15.1144,-13.76782 6.1136,0 10.56044,4.05066 15.1144,13.76782 3.16492,6.75326 3.4456,8.65554 3.4456,23.35218 0,14.10326 -0.36058,16.79772 -3.04164,22.72932 -5.87364,12.99488 -15.78268,17.84796 -23.48954,11.50432 z m 249.26358,-1.91364 c -3.98168,-5.82702 -7.76858,-17.64202 -10.29134,-32.10862 -5.7557,-33.00558 2.10606,-56.58894 24.24156,-72.71872 11.13866,-8.11654 22.305,-11.35118 38.63538,-11.19174 12.12136,0.1184 13.51974,0.41556 22.67628,4.81968 25.17074,12.10664 35.79782,30.77326 35.79782,62.8794 0,24.80878 -9.28224,53.14148 -17.39924,53.10872 -2.37166,-0.008 -5.53902,-5.46286 -21.00232,-36.16 -10.01522,-19.8818 -18.80088,-37.77464 -19.52374,-39.76186 -0.84098,-2.31204 -2.07182,-3.46436 -3.41798,-3.2 -1.30762,0.2568 -9.41942,14.70954 -21.43626,38.19292 -10.6329,20.77886 -19.79856,38.49086 -20.3681,39.35998 -1.83558,2.80108 -4.5538,1.69494 -7.91206,-3.21976 z M 157.27858,487.68506 c -8.78416,-4.66792 -13.0156,-16.6662 -8.78644,-24.91408 4.6914,-9.14934 13.00672,-13.5737 22.25148,-11.83936 7.5281,1.41228 14.71494,11.6508 14.71494,20.96322 0,9.3686 -9.29502,18.16028 -19.2,18.16028 -2.48596,0 -6.52696,-1.06654 -8.97998,-2.37006 z M 283.3219,452.0556 c -5.00238,-5.00238 1.72692,-26.5908 10.33522,-33.15668 8.61708,-6.57256 12.99254,-0.51154 5.13124,7.10794 -5.35122,5.1866 -5.69148,7.95266 -1.3298,10.81056 5.381,3.52576 4.24554,12.28938 -2.01154,15.52504 -4.79558,2.4799 -9.46894,2.36932 -12.12512,-0.28686 z m 107.04628,-29.95126 c -11.80706,-1.13338 -28.5353,-6.44358 -42.98962,-13.64662 -19.27802,-9.60684 -37.72204,-28.89174 -47.43974,-49.6026 -6.93318,-14.77636 -9.43734,-24.85158 -10.40032,-41.84458 -1.77592,-31.33812 8.24432,-58.96774 29.50096,-81.34545 35.29648,-37.15802 85.8976,-46.33164 132.2155,-23.96973 37.26032,17.98899 59.70988,52.58838 61.54384,94.85174 1.32458,30.52502 -6.64132,54.30474 -26.18604,78.17014 -14.45526,17.65084 -46.01472,34.20808 -70.1142,36.78448 -4.224,0.45156 -9.408,1.00452 -11.52,1.22876 -2.112,0.22426 -8.68666,-0.0574 -14.61038,-0.62614 z m -34.15686,-37.4056 c 1.626,-1.62604 4.1928,-6.66604 5.70396,-11.2 4.17712,-12.5328 11.20118,-25.2465 23.48446,-42.50752 13.38942,-18.81542 18.39816,-24.90094 19.55928,-23.76412 0.4786,0.4686 0.29716,5.59176 -0.4032,11.38482 -1.54366,12.76854 -3.81896,16.24542 -12.92356,19.7484 -7.34008,2.8241 -9.68506,5.64504 -8.52728,10.25802 1.08616,4.32752 4.24816,7.03752 8.20502,7.03208 4.70006,-0.006 21.6299,-6.74774 24.729,-9.84684 1.9914,-1.99142 3.32438,-7.6595 6.28792,-26.7378 4.3608,-28.07346 8.50998,-49.30098 9.9101,-50.70112 1.72066,-1.72066 10.81582,1.6478 14.56068,5.39268 2.12408,2.12406 3.62086,5.00138 3.62086,6.96044 0,3.95658 -3.13132,11.8727 -5.91168,14.94494 -2.79976,3.0937 -1.72144,7.73502 2.3227,9.99756 3.23428,1.80944 3.65776,1.73648 6.74268,-1.16166 4.59676,-4.31842 9.2074,-14.64628 11.08314,-24.82626 l 1.58874,-8.62244 -3.7528,-3.63316 c -2.06402,-1.99824 -8.62786,-5.80194 -14.58632,-8.45266 -10.25282,-4.56114 -11.69364,-4.85 -26.88,-5.38904 -26.91986,-0.95554 -30.51474,-0.27564 -37.53546,7.09912 -3.6901,3.87618 -22.65716,38.28644 -22.66558,41.12016 -0.008,2.55424 3.83236,6.50874 6.27298,6.46008 3.7252,-0.0742 5.97026,-3.0147 15.23516,-19.954 8.35916,-15.2833 12.27734,-20.91988 13.5883,-19.5477 0.26398,0.27632 -0.0212,3.6704 -0.6335,7.5424 -1.6034,10.1377 -9.90556,25.62706 -21.47958,40.07458 -11.4113,14.2444 -18.66088,26.31332 -26.09752,43.44648 -6.21366,14.31552 -7.4205,21.68856 -4.14288,25.3103 3.10316,3.42896 8.9867,3.22992 12.64438,-0.42774 z m 65.55594,-137.2509 c 1.17024,-1.786 2.1915,-5.34739 2.2695,-7.9142 0.12,-3.94666 -0.52942,-5.12464 -4.20748,-7.63272 -5.5726,-3.79997 -7.98054,-3.73467 -12.8325,0.34799 -4.27024,3.59316 -5.08326,8.13269 -2.47988,13.84649 1.60524,3.52308 3.24972,4.23018 10.35216,4.45124 3.78612,0.1178 5.20954,-0.52158 6.8982,-3.0988 z M 142.78304,415.8395 c -29.9643,-5.442 -55.747576,-21.38468 -73.527216,-45.46438 -32.56616,-44.10572 -26.03204,-109.1693 14.7158,-146.53257 35.151456,-32.23173 89.045876,-38.77271 130.842916,-15.87994 25.7001,14.07628 46.71452,40.80781 54.72434,69.61251 3.46022,12.44352 3.06858,45.44204 -0.70508,59.4074 -9.61858,35.59592 -41.38532,66.54444 -78.89524,76.86314 -8.94236,2.45996 -37.8572,3.68254 -47.15552,1.99384 z m 42.6826,-54.60092 c 9.61178,-4.45452 22.88268,-16.12708 27.72008,-24.38148 5.20906,-8.8886 8.1146,-19.9816 8.09764,-30.91602 -0.0488,-31.59714 -19.51842,-54.6205 -51.74716,-61.19288 -9.10224,-1.85622 -10.52306,-1.8372 -19.6644,0.26322 -25.44792,5.84726 -43.36212,22.51762 -49.49332,46.0569 -6.604216,25.35532 5.02262,52.7055 27.96974,65.79406 12.79906,7.30032 20.1064,9.08496 35.35034,8.63344 11.77264,-0.3487 14.47306,-0.87684 21.76708,-4.25724 z m -4.48708,-4.24238 c -4.31324,-1.33028 -9.6,-4.25636 -9.6,-5.31336 0,-1.78306 5.4561,-10.65008 8.79184,-14.28814 4.9587,-5.40808 19.59622,-8.50284 22.03048,-4.65784 0.62616,0.98904 1.1473,3.84526 1.15808,6.34716 0.0204,4.75376 -3.6116,9.20538 -12.1404,14.87972 -5.0559,3.36376 -7.15256,3.98466 -10.24,3.03246 z m -54.48268,-4.89554 c -7.93484,-5.54352 -9.8925,-9.52274 -8.15182,-16.56972 1.36384,-5.5214 4.2091,-6.58042 11.34882,-4.2241 5.40676,1.7844 15.4902,10.52388 18.20954,15.7825 1.97986,3.82866 1.94008,4.0253 -1.3943,6.89344 -5.30302,4.56144 -11.6425,3.96524 -20.01224,-1.88212 z m 21.40896,-34.52554 c -3.54448,-7.0114 -6.16156,-16.83836 -5.02514,-18.86902 1.24064,-2.21692 15.73272,-13.4163 17.38822,-13.43752 1.161,-0.014 9.7347,5.9253 15.37988,10.65574 l 3.62924,3.04118 -2.70766,9.0918 c -3.68776,12.38282 -4.53024,13.03782 -16.76938,13.03782 -9.7506,0 -10.17994,-0.127 -11.89516,-3.52 z M 106.8875,304.45144 c -2.54592,-2.81802 -4.62894,-6.3674 -4.62894,-7.8875 0,-4.96918 4.24222,-16.36042 7.08864,-19.0345 3.69232,-3.46878 11.06474,-4.65808 13.53876,-2.18406 2.88608,2.88608 3.00906,17.37604 0.183,21.56772 -2.63806,3.91292 -10.25424,12.66202 -11.0224,12.66202 -0.29158,0 -2.61318,-2.30566 -5.1591,-5.12368 z m 96.63618,0.53746 c -5.96572,-7.5842 -9.81512,-24.84902 -6.65362,-29.84204 1.4903,-2.35366 9.72532,-1.07716 13.24804,2.05356 3.8401,3.4128 7.2805,11.82354 7.31236,17.8765 0.0206,3.9067 -0.86216,6.3998 -3.28568,9.28 -4.04414,4.8062 -7.1904,4.9934 -10.6211,0.63198 z m -53.58512,-41.05164 c -4.4,-1.8002 -8,-3.81108 -8,-4.4686 0,-0.65754 1.12414,-3.399 2.49808,-6.09214 1.8664,-3.65848 3.52514,-5.10204 6.56,-5.709 6.05922,-1.21186 15.92946,-0.98188 19.7205,0.45946 3.51654,1.337 7.80038,9.29692 6.3053,11.71604 -1.20934,1.95676 -13.50504,7.47604 -16.52388,7.41722 -1.408,-0.0274 -6.16,-1.52276 -10.56,-3.32298 z m -242.24,145.5146 c -13.21158,-1.69492 -28.56398,-5.95906 -37.341,-10.37154 -30.0583,-15.11122 -47.66958,-35.66958 -58.03373,-67.7452 -4.49256,-13.90382 -5.83857,-40.10242 -2.79602,-54.42114 8.65145,-40.71497 36.69469,-71.20813 77.69075,-84.47795 9.09522,-2.94399 13.81962,-3.62139 28.8,-4.12946 15.20744,-0.51577 19.62528,-0.20062 29.18572,2.082 25.72154,6.1412 48.0393242,20.64246 63.6470442,41.35547 13.8279798,18.3511 21.1834998,37.89196 22.5882798,60.0085 3.04816,47.98974 -22.5065198,90.19856 -66.555444,109.93 -14.75572,6.60974 -39.75236,10.00582 -57.1856,7.76932 z m 18.38026,-43.59942 c 8.77068,-3.28154 17.69192,-11.06458 21.35416,-18.62974 1.75534,-3.62604 3.13178,-9.5654 3.6272,-15.65124 1.11344,-13.67802 3.0123,-13.56796 11.62456,0.6738 9.60298,15.88008 12.5628,19.56986 15.69816,19.56986 3.00632,0 7.39566,-3.40276 7.39566,-5.73336 0,-2.33434 -18.57884,-33.00592 -21.69554,-35.81688 -2.0683,-1.8654 -4.68104,-2.52302 -10.17106,-2.56 -6.74456,-0.0454 -8.02768,-0.54342 -14.73706,-5.71984 -10.30302,-7.94894 -14.30038,-13.26948 -18.8202,-25.04992 -2.16084,-5.632 -4.79712,-12.0931 -5.8584,-14.35802 -1.79948,-3.84034 -1.7485,-4.34826 0.75632,-7.53262 5.11918,-6.50796 3.061,-17.95757 -4.00216,-22.26398 -7.93776,-4.83964 -17.14728,-2.78229 -22.3935,5.00257 -4.94832,7.34281 -3.40918,14.77193 4.64732,22.43153 2.17484,2.06772 3.95428,4.48704 3.95428,5.3763 0,0.88924 -2.62762,3.80548 -5.83916,6.48052 -6.82118,5.68168 -12.89584,14.33672 -14.59034,20.78798 -0.65814,2.50564 -1.3649,8.20644 -1.57054,12.66844 -0.31356,6.80306 0.025,8.40444 2.0977,9.91998 5.87408,4.29524 9.0469,0.87928 10.02554,-10.79384 0.86368,-10.30194 2.97384,-15.11104 8.7709,-19.98894 l 4.10606,-3.45502 1.65456,2.98256 c 2.5602,4.61508 2.1157,5.6659 -3.05472,7.22132 -5.57016,1.6757 -7.33464,4.03476 -8.59426,11.49044 -1.0321,6.1089 -0.63478,6.34734 4.92316,2.95428 10.64568,-6.49902 22.07718,-6.5302 31.80502,-0.0868 18.46812,12.23278 15.91502,40.68392 -4.41282,49.17534 -6.39588,2.67172 -17.08754,2.47378 -23.49166,-0.4349 -10.19488,-4.6304 -17.11406,-17.81796 -15.70068,-29.92456 0.56234,-4.81692 0.597,-4.7912 -8.46256,-6.2822 -5.84064,-0.96126 -5.0508,19.73532 1.15742,30.32886 9.90592,16.90314 31.07496,24.2227 49.79664,17.21802 z"
       id="path74"
       inkscape:connector-curvature="0"
       inkscape:export-xdpi="96.690697"
       inkscape:export-ydpi="96.690697" />
    <path
       style="fill:#5d989d;stroke-width:1.27999997"
       d="m 391.15788,422.18134 c -18.98672,-1.80246 -19.87852,-2.30966 -32.86684,-18.69202 -6.35388,-8.0142 -11.55248,-14.85544 -11.55248,-15.20274 0,-0.3473 1.46618,-0.63146 3.25818,-0.63146 4.75786,0 8.80074,-4.802 11.91854,-14.15638 4.17712,-12.5328 11.20118,-25.2465 23.48446,-42.50752 13.38942,-18.81542 18.39816,-24.90094 19.55928,-23.76412 0.4786,0.4686 0.29716,5.59176 -0.4032,11.38482 -1.54366,12.76854 -3.81896,16.24542 -12.92356,19.7484 -7.34008,2.8241 -9.68506,5.64504 -8.52728,10.25802 1.08616,4.32752 4.24816,7.03752 8.20502,7.03208 4.70006,-0.006 21.6299,-6.74774 24.729,-9.84684 1.9914,-1.99142 3.32438,-7.6595 6.28792,-26.7378 4.3608,-28.07346 8.50998,-49.30098 9.9101,-50.70112 1.72066,-1.72066 10.81582,1.6478 14.56068,5.39268 2.12408,2.12406 3.62086,5.00138 3.62086,6.96044 0,3.95658 -3.13132,11.8727 -5.91168,14.94494 -2.79976,3.0937 -1.72144,7.73502 2.3227,9.99756 3.23428,1.80944 3.65776,1.73648 6.74268,-1.16166 4.43094,-4.16264 9.06414,-14.3094 10.96634,-24.01642 l 1.56238,-7.97294 4.54906,5.9577 c 2.50198,3.27676 12.53194,17.77046 22.2888,32.20826 19.7977,29.2958 18.91468,26.4477 13.05804,42.1171 -3.126,8.3636 -11.83488,22.7068 -19.38412,31.92492 -14.45526,17.65084 -46.01472,34.20808 -70.1142,36.78448 -4.224,0.45156 -9.408,1.0024 -11.52,1.22406 -2.112,0.2217 -8.33132,-0.0232 -13.82068,-0.54444 z m -236.03934,-17.3988 c -23.32334,-33.02198 -36.21998,-51.86984 -36.21998,-52.9338 0,-0.64156 3.024,0.82722 6.72,3.26394 12.56998,8.28722 18.98414,10.08118 36.16,10.11352 14.52364,0.0274 15.81342,-0.1854 23.68708,-3.90892 9.61452,-4.54666 22.94178,-16.30662 27.72008,-24.46018 10.08168,-17.20308 10.8651,-41.39162 1.90806,-58.91098 -1.51538,-2.96396 -2.75522,-5.74836 -2.75522,-6.18756 0,-1.31328 8.4628,5.77926 31.39558,26.31212 11.94844,10.69802 23.02042,20.05946 24.60442,20.80316 1.9337,0.9079 2.88,2.47916 2.88,4.78198 0,6.85916 -5.24304,23.67968 -10.30802,33.06984 -18.42982,34.16768 -51.11952,56.45324 -87.81094,59.86334 l -9.04824,0.84094 z m -240.53124,5.02612 c -1.56566,-1.1306 -31.20874,-49.46838 -31.20874,-50.89082 0,-0.48238 1.68614,0.32362 3.74702,1.79108 15.8532,11.28848 37.16652,10.23674 51.69404,-2.5509 7.74218,-6.81494 11.25158,-14.43734 12.24056,-26.58656 1.11344,-13.67802 3.0123,-13.56796 11.62456,0.6738 9.81736,16.23456 12.5307,19.56986 15.92056,19.56986 2.9233,0 7.17326,-3.52864 7.17326,-5.95578 0,-2.17366 -18.7531,-32.94066 -21.69554,-35.59446 -2.0683,-1.8654 -4.68104,-2.52302 -10.17106,-2.56 -6.74456,-0.0454 -8.02768,-0.54342 -14.73706,-5.71984 -10.30302,-7.94894 -14.30038,-13.26948 -18.8202,-25.04992 -2.16084,-5.632 -4.78718,-12.07214 -5.83628,-14.31142 -1.78086,-3.8011 -1.71924,-4.32604 0.92812,-7.90678 2.32346,-3.14264 2.72278,-5.00988 2.21082,-10.33788 l -0.6248,-6.50249 4.613,3.46311 c 2.53714,1.90472 22.181,17.06838 43.653,33.69706 21.472,16.62866 43.3600042,33.43834 48.640004,37.35486 5.28,3.9165 10.8975,8.52372 12.48332,10.23826 l 2.88332,3.11736 -3.02064,8.87396 c -10.41914,30.60902 -31.5530598,53.69144 -61.400404,67.06138 -12.7595,5.71554 -46.16186,11.11216 -50.29686,8.12612 z M 180.97856,356.9962 c -4.31324,-1.33028 -9.6,-4.25636 -9.6,-5.31336 0,-1.78306 5.4561,-10.65008 8.79184,-14.28814 4.9587,-5.40808 19.59622,-8.50284 22.03048,-4.65784 0.62616,0.98904 1.1473,3.84526 1.15808,6.34716 0.0204,4.75376 -3.6116,9.20538 -12.1404,14.87972 -5.0559,3.36376 -7.15256,3.98466 -10.24,3.03246 z M -100.712,354.51232 c -10.23306,-4.64774 -17.11394,-17.81898 -15.68834,-30.03028 0.47234,-4.04594 0.1912,-4.66692 -2.11332,-4.66692 -3.689,0 -8.38298,-3.5389 -7.5552,-5.69606 0.54634,-1.42376 1.1845,-1.28684 3.14638,0.67504 5.61648,5.61648 9.49734,1.87016 10.50424,-10.14012 0.86368,-10.30194 2.97384,-15.11104 8.7709,-19.98894 l 4.10606,-3.45502 1.65456,2.98256 c 2.5602,4.61508 2.1157,5.6659 -3.05472,7.22132 -5.57016,1.6757 -7.33464,4.03476 -8.59426,11.49044 -1.0321,6.1089 -0.63478,6.34734 4.92316,2.95428 10.64568,-6.49902 22.07718,-6.5302 31.80502,-0.0868 18.46812,12.23278 15.91502,40.68392 -4.41282,49.17534 -6.39588,2.67172 -17.08754,2.47378 -23.49166,-0.4349 z m 227.20788,-2.41166 c -7.93484,-5.54352 -9.8925,-9.52274 -8.15182,-16.56972 1.36384,-5.5214 4.2091,-6.58042 11.34882,-4.2241 5.40676,1.7844 15.4902,10.52388 18.20954,15.7825 1.97986,3.82866 1.94008,4.0253 -1.3943,6.89344 -5.30302,4.56144 -11.6425,3.96524 -20.01224,-1.88212 z m 21.40896,-34.52554 c -3.54448,-7.0114 -6.16156,-16.83836 -5.02514,-18.86902 1.24064,-2.21692 15.73272,-13.4163 17.38822,-13.43752 1.161,-0.014 9.7347,5.9253 15.37988,10.65574 l 3.62924,3.04118 -2.70766,9.0918 c -3.68776,12.38282 -4.53024,13.03782 -16.76938,13.03782 -9.7506,0 -10.17994,-0.127 -11.89516,-3.52 z m 220.68662,-3.69262 c -3.39648,-4.31792 -3.35298,-4.6465 0.8671,-6.55104 2.61914,-1.18202 5.81312,-5.86344 12.48,-18.29194 8.17006,-15.2307 12.62118,-21.70706 13.95876,-20.30988 1.31,1.36838 -2.10124,15.12752 -5.60886,22.62312 -3.99648,8.54026 -16.04704,25.90236 -17.97816,25.90236 -0.58626,0 -2.25974,-1.51768 -3.71884,-3.37262 z M 106.8875,304.45144 c -2.54592,-2.81802 -4.62894,-6.3674 -4.62894,-7.8875 0,-4.96918 4.24222,-16.36042 7.08864,-19.0345 3.69232,-3.46878 11.06474,-4.65808 13.53876,-2.18406 2.88608,2.88608 3.00906,17.37604 0.183,21.56772 -2.63806,3.91292 -10.25424,12.66202 -11.0224,12.66202 -0.29158,0 -2.61318,-2.30566 -5.1591,-5.12368 z m 96.63618,0.53746 c -5.96572,-7.5842 -9.81512,-24.84902 -6.65362,-29.84204 1.4903,-2.35366 9.72532,-1.07716 13.24804,2.05356 3.8401,3.4128 7.2805,11.82354 7.31236,17.8765 0.0206,3.9067 -0.86216,6.3998 -3.28568,9.28 -4.04414,4.8062 -7.1904,4.9934 -10.6211,0.63198 z m -53.58512,-41.05164 c -4.4,-1.8002 -8,-3.81108 -8,-4.4686 0,-0.65754 1.12414,-3.399 2.49808,-6.09214 1.8664,-3.65848 3.52514,-5.10204 6.56,-5.709 6.05922,-1.21186 15.92946,-0.98188 19.7205,0.45946 3.51654,1.337 7.80038,9.29692 6.3053,11.71604 -1.20934,1.95676 -13.50504,7.47604 -16.52388,7.41722 -1.408,-0.0274 -6.16,-1.52276 -10.56,-3.32298 z m 260.48,-10.44716 c -1.936,-0.22276 -3.52,-1.16 -3.52,-2.08276 0,-1.23084 1.53156,-1.50512 5.74968,-1.02968 6.88066,0.77556 9.03982,-0.68132 11.0745,-7.47246 0.81176,-2.70943 1.86118,-4.68815 2.33202,-4.39714 0.47086,0.291 3.2103,3.88524 6.08764,7.98718 l 5.23154,7.45808 -11.71768,-0.029 c -6.44474,-0.016 -13.3017,-0.21136 -15.2377,-0.43412 z"
       id="path72"
       inkscape:connector-curvature="0"
       inkscape:export-xdpi="96.690697"
       inkscape:export-ydpi="96.690697" />
    <path
       style="fill:#168d9b;stroke-width:1.27999997"
       d="m 378.38756,419.73012 c -4.76904,-1.20176 -9.16994,-2.71826 -9.77978,-3.37 -2.72964,-2.9173 -21.86922,-27.4686 -21.86922,-28.05276 0,-0.35874 1.6862,-0.65224 3.7471,-0.65224 5.02584,0 7.75038,-3.721 13.39918,-18.29976 2.53216,-6.53512 7.20886,-16.10714 10.39268,-21.27114 7.19814,-11.67504 28.81016,-41.0691 30.1961,-41.0691 0.95524,0 0.54694,8.01742 -0.89442,17.56232 -0.84378,5.58762 -5.99438,11.3826 -11.76252,13.23408 -6.45458,2.0718 -9.23812,4.76554 -9.23812,8.94018 0,5.40034 3.98566,9.44952 9.11696,9.26228 4.25654,-0.1554 21.71642,-6.7572 24.93488,-9.42826 1.91076,-1.5858 3.29246,-7.96948 6.9025,-31.8906 1.43428,-9.504 3.84996,-23.76 5.36818,-31.68 2.58734,-13.49726 2.9497,-14.4 5.78006,-14.4 7.71872,0 15.73742,6.28686 15.73742,12.3385 0,1.5449 -1.93684,6.4598 -4.3041,10.92202 -3.21986,6.06936 -4.03994,8.82726 -3.2554,10.94802 1.23928,3.35016 6.30798,4.95134 9.78436,3.09084 3.77684,-2.02132 10.28832,-15.37468 12.06556,-24.74336 l 1.59316,-8.39844 4.44848,5.826 c 2.44666,3.20428 12.37246,17.55156 22.05732,31.88282 l 17.60886,26.05684 -1.89944,7.31838 c -6.52648,25.14598 -27.70264,51.17554 -51.7288,63.58456 -21.08158,10.88822 -37.0049,14.99336 -56.93,14.67702 -7.12206,-0.113 -16.64636,-1.17246 -21.471,-2.3882 z m -223.38772,-15.115 c -24.23698,-34.31734 -36.19076,-51.85718 -35.68586,-52.36208 0.30698,-0.30698 3.10366,1.15984 6.21484,3.25956 23.56272,15.90226 52.64722,14.69974 74.4727,-3.07916 21.45948,-17.48078 27.98074,-47.11096 16.12384,-73.26078 l -3.68848,-8.13478 4.78642,3.79092 c 2.63254,2.085 14.56242,12.54384 26.51084,23.24188 11.94844,10.69802 23.04048,20.0686 24.649,20.82348 2.61502,1.22724 2.84146,1.99214 2.13942,7.22674 -4.67486,34.8567 -33.27928,69.66388 -68.37066,83.19654 -9.31134,3.59082 -28.34798,7.77768 -35.3633,7.77768 -2.30678,0 -4.95356,-2.802 -11.78876,-12.48 z m -239.62128,5.27556 c -1.67808,-0.48298 -32,-48.77988 -32,-50.96976 0,-0.45984 1.872,0.58514 4.16,2.32218 11.47324,8.71048 26.78212,10.31042 40.1503,4.19612 14.78134,-6.76064 23.4154,-19.25772 24.10698,-34.89288 0.20096,-4.54332 0.71538,-8.61054 1.14312,-9.03828 1.48414,-1.48416 4.5461,2.38524 12.43402,15.71284 8.74122,14.76932 10.84654,16.6755 15.88312,14.38066 6.34326,-2.89018 5.61914,-6.17798 -5.38538,-24.45178 -5.87522,-9.7562 -11.49818,-17.60488 -13.26514,-18.51578 -1.68686,-0.86962 -6.1614,-1.58962 -9.94344,-1.6 -6.33704,-0.018 -7.49158,-0.51998 -14.72,-6.40776 -9.64602,-7.85704 -12.3596,-11.78096 -18.2166,-26.34168 -2.5286,-6.28618 -5.17078,-12.12912 -5.8715,-12.98432 -0.8801,-1.07408 -0.5033,-2.65726 1.21856,-5.12 3.4,-4.8629 4.31482,-9.39322 2.89586,-14.34084 l -1.19272,-4.15872 4.74142,3.56104 c 2.60776,1.95858 22.3094,17.16632 43.7814,33.795 21.472,16.62866 43.3600042,33.4322 48.640004,37.3412 13.25764,9.81518 14.57144,11.45628 13.54624,16.92108 -1.3693,7.29894 -7.85114,21.82138 -13.88588,31.111 -14.8869998,22.91642 -40.626324,40.74228 -66.860364,46.3044 -11.87834,2.51842 -27.97956,4.14924 -31.36,3.17628 z m -16.47464,-56.31288 c -4.12052,-2.05334 -7.92262,-5.16054 -9.78916,-8 -3.77078,-5.7363 -6.07374,-15.62184 -4.9878,-21.41038 0.75172,-4.00704 0.5626,-4.3523 -2.38416,-4.3523 -3.74606,0 -9.69526,-4.29462 -7.67706,-5.54194 0.7385,-0.45642 2.05454,0.0278 2.9245,1.07604 2.00646,2.41762 6.89274,2.46274 8.86868,0.082 0.8326,-1.00322 1.97196,-6.36856 2.5319,-11.92296 1.07676,-10.68108 3.21688,-15.361 8.6535,-18.92322 3.40792,-2.23296 5.03484,-1.55372 5.74726,2.3995 0.31348,1.73956 -0.76372,2.76016 -4.05302,3.84 -5.13496,1.68574 -8.95482,7.90752 -8.95802,14.59074 -0.002,4.0528 1.59378,5.47568 3.20932,2.8617 2.02476,-3.27614 11.74122,-6.77404 18.65286,-6.715 29.04966,0.24818 38.51216,38.39056 12.8499,51.79668 -8.95926,4.68038 -16.50666,4.74506 -25.5887,0.21928 z m 230.07486,-0.30886 c -6.49884,-4.12146 -11.36022,-9.66546 -11.36022,-12.95544 0,-1.208 0.64986,-4.06056 1.44414,-6.33902 1.35896,-3.89832 1.71498,-4.09186 6.03576,-3.28128 9.0785,1.70314 17.98848,8.21692 22.0027,16.08542 l 2.49032,4.88146 -3.70404,2.63752 c -5.07294,3.61224 -10.07008,3.30824 -16.90866,-1.02866 z m 46.59348,0.98026 -4.12628,-2.6428 3.71496,-6.61564 c 4.62598,-8.23796 9.70854,-11.87834 18.21806,-13.04872 5.62506,-0.77362 6.8741,-0.55232 8.3631,1.48182 0.96272,1.3152 1.58076,4.40408 1.37344,6.86418 -0.32182,3.81826 -1.55864,5.36378 -8.45082,10.56 -9.02908,6.80728 -12.74172,7.46866 -19.09246,3.40116 z M 149.0564,319.94106 c -0.47966,-0.77608 -2.27684,-5.54116 -3.99374,-10.58906 -2.96908,-8.7295 -3.01336,-9.29768 -0.90578,-11.62652 3.79086,-4.18886 14.0154,-11.19036 16.34168,-11.19036 2.324,0 12.6415,7.06266 16.20226,11.09094 1.92244,2.17486 1.86566,2.99264 -0.7657,11.02784 -1.56316,4.77332 -3.54156,9.37822 -4.39644,10.2331 -2.05124,2.05124 -21.30802,2.95408 -22.48228,1.05406 z m 219.53506,-6.05856 c -3.28478,-4.17592 -3.34784,-5.58738 -0.24962,-5.58738 3.27272,0 4.28196,-1.41168 14.83944,-20.75696 5.05978,-9.27142 9.8741,-17.08196 10.69846,-17.35676 3.62966,-1.20988 -0.20986,15.42856 -5.84142,25.31372 -4.29956,7.54706 -14.65472,21.76 -15.85372,21.76 -0.51712,0 -2.13404,-1.51768 -3.59314,-3.37262 z m -260.22702,-8.10398 c -5.8904,-4.6334 -6.73492,-9.0203 -3.56834,-18.53588 3.21074,-9.64828 6.0715,-12.22752 13.56216,-12.22752 h 5.2901 l 0.7908,8.46828 c 0.49864,5.34004 0.2571,9.47738 -0.6539,11.2 -2.02958,3.8377 -10.12086,13.61172 -11.26828,13.61172 -0.52426,0 -2.3929,-1.13248 -4.15254,-2.5166 z m 94.43798,-2.2834 c -4.49178,-6.79612 -8.01844,-20.88618 -6.38704,-25.51804 1.11268,-3.1591 1.81546,-3.54682 5.71592,-3.1536 2.446,0.2466 5.50298,1.0124 6.7933,1.7018 2.9647,1.58396 8.50492,13.33438 8.52146,18.07342 0.0228,6.51394 -5.28698,13.69642 -10.1252,13.69642 -0.74028,0 -2.77358,-2.16 -4.51844,-4.8 z m -53.82386,-40.27078 c -3.52,-1.51102 -6.60594,-2.89818 -6.85766,-3.08258 -0.2517,-0.1844 0.90162,-2.79938 2.56296,-5.81106 2.6016,-4.71614 3.8059,-5.63108 8.68128,-6.59522 3.11334,-0.6157 8.7351,-0.73532 12.4928,-0.26582 5.82144,0.72734 7.11388,1.39838 8.7364,4.53598 3.2546,6.2937 2.48892,8.78924 -3.53578,11.52396 -7.06168,3.20542 -14.1293,3.1077 -22.08,-0.30526 z m 272.32,-9.64474 c -11.50284,-0.32616 -14.4,-0.7798 -14.4,-2.25472 0,-1.45308 0.6994,-1.58048 3.28334,-0.59806 1.80582,0.68656 4.15414,1.2483 5.21846,1.2483 3.20786,0 9.4182,-7.15912 9.4182,-10.85707 0,-1.8557 0.47078,-3.08306 1.04614,-2.72745 1.65148,1.02066 12.03664,16.17586 10.87562,15.87092 -0.57296,-0.1504 -7.52176,-0.45734 -15.44176,-0.68192 z"
       id="path70"
       inkscape:connector-curvature="0"
       inkscape:export-xdpi="96.690697"
       inkscape:export-ydpi="96.690697" />
    <path
       style="fill:#217b84;stroke-width:1.27999997"
       d="m 378.74614,419.81174 -8.31242,-2.07662 -11.89788,-14.72 -11.89786,-14.72 3.85936,-0.3988 c 5.15578,-0.53274 7.86222,-4.28104 13.3875,-18.54096 2.53216,-6.53512 7.20886,-16.10714 10.39268,-21.27114 7.19814,-11.67504 28.81016,-41.0691 30.1961,-41.0691 0.95524,0 0.54694,8.01742 -0.89442,17.56232 -0.84378,5.58762 -5.99438,11.3826 -11.76252,13.23408 -6.45458,2.0718 -9.23812,4.76554 -9.23812,8.94018 0,5.40034 3.98566,9.44952 9.11696,9.26228 4.25654,-0.1554 21.71642,-6.7572 24.93488,-9.42826 1.91076,-1.5858 3.29246,-7.96948 6.9025,-31.8906 1.43428,-9.504 3.84996,-23.76 5.36818,-31.68 2.58734,-13.49726 2.9497,-14.4 5.78006,-14.4 7.71872,0 15.73742,6.28686 15.73742,12.3385 0,1.5449 -1.93684,6.4598 -4.3041,10.92202 -3.21986,6.06936 -4.03994,8.82726 -3.2554,10.94802 1.23406,3.33604 6.30364,4.95366 9.74784,3.11038 3.6214,-1.93812 9.57482,-13.76128 11.89614,-23.625 l 2.04888,-8.70608 7.08584,9.98608 c 3.89722,5.49234 12.73308,18.33808 19.63522,28.54608 6.90214,10.208 13.61662,19.74606 14.92106,21.19568 2.2358,2.48464 2.2586,3.07144 0.3978,10.24 -6.60484,25.44452 -27.65534,51.39858 -51.80328,63.8705 -21.10674,10.9012 -37.02192,15.00052 -56.93,14.66366 -7.04,-0.1192 -16.54058,-1.15108 -21.11242,-2.29322 z m -215.66232,-5.24872 c -3.3397,-3.69032 -44.0437,-62.03612 -43.59296,-62.48686 0.20968,-0.20968 2.92678,1.33672 6.03796,3.43644 13.12164,8.85568 30.91602,12.9656 45.2949,10.46162 39.65516,-6.90564 62.14708,-48.79878 45.91058,-85.51238 -1.71366,-3.87488 -3.11574,-7.33192 -3.11574,-7.6823 0,-0.72698 9.69358,7.6381 34.67806,29.92548 9.57508,8.54142 18.65288,16.19544 20.1729,17.00894 2.37846,1.2729 2.6579,2.23042 2.00488,6.87012 -4.88584,34.71484 -33.42726,69.27632 -68.3225,82.73336 -8.83896,3.40866 -28.26534,7.77768 -34.58262,7.77768 -1.20668,0 -3.22514,-1.13944 -4.48546,-2.5321 z m -248.60208,-6.05126 c -2.3692,-2.09252 -29.82318,-46.68306 -29.82318,-48.43858 0,-0.4138 1.6172,0.39918 3.5938,1.80664 11.42756,8.13714 26.46116,9.49402 39.4365,3.5594 14.78134,-6.76064 23.4154,-19.25772 24.10698,-34.89288 0.20096,-4.54332 0.71538,-8.61054 1.14312,-9.03828 1.48414,-1.48416 4.5461,2.38524 12.43402,15.71284 8.74122,14.76932 10.84654,16.6755 15.88312,14.38066 6.34326,-2.89018 5.61914,-6.17798 -5.38538,-24.45178 -5.87522,-9.7562 -11.49818,-17.60488 -13.26514,-18.51578 -1.68686,-0.86962 -6.1614,-1.58962 -9.94344,-1.6 -6.33704,-0.018 -7.49158,-0.51998 -14.72,-6.40776 -9.64602,-7.85704 -12.3596,-11.78096 -18.2166,-26.34168 -2.5286,-6.28618 -5.17078,-12.12912 -5.8715,-12.98432 -0.88582,-1.08106 -0.3841,-2.80472 1.64642,-5.65632 2.12054,-2.97804 2.89496,-5.7925 2.82734,-10.2754 l -0.0932,-6.17399 4.65196,3.63297 c 16.62844,12.98606 85.7475242,66.22544 93.865884,72.30078 5.41968,4.05576 10.19496,8.4485 10.61172,9.76164 2.60684,8.21344 -12.21244,36.92814 -26.53347982,51.41276 C -19.06322,396.42382 -42.87324,407.16184 -73.84974,409.98262 c -7.66526,0.69802 -9.47056,0.47046 -11.66856,-1.47086 z m -15.57782,-54.93396 c -4.12052,-2.05334 -7.92262,-5.16054 -9.78916,-8 -3.77078,-5.7363 -6.07374,-15.62184 -4.9878,-21.41038 0.72544,-3.86696 0.50576,-4.3523 -1.9701,-4.3523 -3.97262,0 -7.73832,-2.29856 -7.73832,-4.72342 0,-1.8947 0.20168,-1.89082 2.3408,0.045 2.87438,2.6013 7.07228,2.73708 9.09958,0.29434 0.8326,-1.00322 1.97196,-6.36856 2.5319,-11.92296 1.07676,-10.68108 3.21688,-15.361 8.6535,-18.92322 3.40792,-2.23296 5.03484,-1.55372 5.74726,2.3995 0.31348,1.73956 -0.76372,2.76016 -4.05302,3.84 -5.13496,1.68574 -8.95482,7.90752 -8.95802,14.59074 -0.002,4.0528 1.59378,5.47568 3.20932,2.8617 2.02476,-3.27614 11.74122,-6.77404 18.65286,-6.715 29.04966,0.24818 38.51216,38.39056 12.8499,51.79668 -8.95926,4.68038 -16.50666,4.74506 -25.5887,0.21928 z m 230.07486,-0.30886 c -6.49884,-4.12146 -11.36022,-9.66546 -11.36022,-12.95544 0,-1.208 0.64986,-4.06056 1.44414,-6.33902 1.35896,-3.89832 1.71498,-4.09186 6.03576,-3.28128 9.0785,1.70314 17.98848,8.21692 22.0027,16.08542 l 2.49032,4.88146 -3.70404,2.63752 c -5.07294,3.61224 -10.07008,3.30824 -16.90866,-1.02866 z m 46.59348,0.98026 -4.12628,-2.6428 3.71496,-6.61564 c 4.62598,-8.23796 9.70854,-11.87834 18.21806,-13.04872 5.62506,-0.77362 6.8741,-0.55232 8.3631,1.48182 0.96272,1.3152 1.58076,4.40408 1.37344,6.86418 -0.32182,3.81826 -1.55864,5.36378 -8.45082,10.56 -9.02908,6.80728 -12.74172,7.46866 -19.09246,3.40116 z M 149.0564,319.94106 c -0.47966,-0.77608 -2.27684,-5.54116 -3.99374,-10.58906 -2.96908,-8.7295 -3.01336,-9.29768 -0.90578,-11.62652 3.79086,-4.18886 14.0154,-11.19036 16.34168,-11.19036 2.324,0 12.6415,7.06266 16.20226,11.09094 1.92244,2.17486 1.86566,2.99264 -0.7657,11.02784 -1.56316,4.77332 -3.54156,9.37822 -4.39644,10.2331 -2.05124,2.05124 -21.30802,2.95408 -22.48228,1.05406 z m 219.60546,-6.84594 c -2.5636,-4.02726 -2.57056,-4.17266 -0.21864,-4.55684 3.36768,-0.5501 4.312,-1.89566 14.73806,-21.00012 5.05978,-9.27142 9.8741,-17.08196 10.69846,-17.35676 3.62966,-1.20988 -0.20986,15.42856 -5.84142,25.31372 -4.2444,7.45022 -14.64854,21.76 -15.82094,21.76 -0.49908,0 -2.09906,-1.872 -3.55552,-4.16 z m -260.29742,-7.3166 c -5.8904,-4.6334 -6.73492,-9.0203 -3.56834,-18.53588 3.21074,-9.64828 6.0715,-12.22752 13.56216,-12.22752 h 5.2901 l 0.7908,8.46828 c 0.49864,5.34004 0.2571,9.47738 -0.6539,11.2 -2.02958,3.8377 -10.12086,13.61172 -11.26828,13.61172 -0.52426,0 -2.3929,-1.13248 -4.15254,-2.5166 z m 94.43798,-2.2834 c -4.49178,-6.79612 -8.01844,-20.88618 -6.38704,-25.51804 1.11268,-3.1591 1.81546,-3.54682 5.71592,-3.1536 2.446,0.2466 5.50298,1.0124 6.7933,1.7018 2.9647,1.58396 8.50492,13.33438 8.52146,18.07342 0.0228,6.51394 -5.28698,13.69642 -10.1252,13.69642 -0.74028,0 -2.77358,-2.16 -4.51844,-4.8 z m -53.82386,-40.27078 c -3.52,-1.51102 -6.60594,-2.89818 -6.85766,-3.08258 -0.2517,-0.1844 0.90162,-2.79938 2.56296,-5.81106 2.6016,-4.71614 3.8059,-5.63108 8.68128,-6.59522 3.11334,-0.6157 8.7351,-0.73532 12.4928,-0.26582 5.82144,0.72734 7.11388,1.39838 8.7364,4.53598 3.2546,6.2937 2.48892,8.78924 -3.53578,11.52396 -7.06168,3.20542 -14.1293,3.1077 -22.08,-0.30526 z m 272.32,-9.69114 c -11.18232,-0.28104 -14.4,-0.7548 -14.4,-2.12018 0,-1.4205 0.86706,-1.49216 4.51338,-0.37308 3.86996,1.18772 5.01042,1.0167 8,-1.1997 1.91764,-1.42168 4.12054,-4.49224 4.89534,-6.82344 l 1.40872,-4.23853 5.49068,7.27235 c 3.01988,3.9998 5.26596,7.4011 4.9913,7.55844 -0.27468,0.1574 -6.97942,0.1232 -14.89942,-0.0758 z"
       id="path68"
       inkscape:connector-curvature="0"
       inkscape:export-xdpi="96.690697"
       inkscape:export-ydpi="96.690697" />
    <path
       style="fill:#005c64;stroke-width:1.27999997"
       d="m 385.65326,420.93896 c -13.57114,-1.9899 -15.16192,-3.05942 -27.30636,-18.3582 -11.3067,-14.24348 -11.32936,-14.28682 -7.68284,-14.68312 4.74512,-0.51568 9.3281,-6.02954 12.1375,-14.60278 4.80206,-14.65422 12.66368,-28.0626 30.60576,-52.19974 9.03442,-12.15384 11.69392,-14.41602 11.28604,-9.6 -1.5986,18.87546 -3.80404,23.28722 -13.0218,26.04892 -6.74264,2.02016 -9.093,4.55058 -9.093,9.78962 0,4.5625 4.7146,9.6647 8.81262,9.5371 5.00942,-0.156 23.69308,-8.42826 25.98326,-11.50422 1.6915,-2.2719 3.17404,-8.62168 4.93102,-21.12 1.38178,-9.82928 4.09604,-26.36742 6.03168,-36.75142 3.90964,-20.97358 3.62322,-20.61108 13.24368,-16.76174 9.58608,3.8356 10.63234,12.58048 2.8489,23.81196 -3.25728,4.70026 -3.36238,5.25776 -1.5896,8.43142 1.31934,2.36188 3.13558,3.51926 5.95502,3.79474 3.49528,0.34152 4.59882,-0.35198 7.97382,-5.01104 4.0637,-5.60976 8.9885,-19.38482 9.03808,-25.28016 l 0.0284,-3.38518 2.53978,3.2 c 1.39686,1.76 9.5451,13.568 18.1072,26.24 8.56208,12.672 17.27226,25.23218 19.35594,27.9115 3.3574,4.31712 3.70074,5.55528 3.01704,10.88 -1.00832,7.853 -11.94632,29.40312 -20.1011,39.6034 -12.19344,15.25196 -31.87654,28.49668 -52.7911,35.523 -14.83294,4.98316 -34.78544,6.76226 -50.30998,4.48594 z m -222.83084,-6.74942 c -1.40488,-1.56992 -11.3684,-15.52642 -22.14116,-31.01442 -10.77278,-15.488 -20.22492,-29.0062 -21.00478,-30.04046 -0.77986,-1.03424 0.59808,-0.57992 3.06208,1.00962 23.30708,15.03564 45.93306,16.93742 67.10418,5.64038 8.33416,-4.44716 20.89818,-17.01118 25.34536,-25.34536 9.20828,-17.25668 9.62138,-38.02248 1.10696,-55.64528 -1.3443,-2.7824 -2.12832,-5.0589 -1.7423,-5.0589 0.80878,0 10.6844,8.51602 34.2658,29.54832 9.152,8.16268 17.85262,15.48524 19.3347,16.27234 2.48474,1.31956 2.60658,2.00884 1.56366,8.84522 -2.82354,18.50812 -11.8702,36.11404 -26.73674,52.03298 -18.3853,19.6868 -41.64872,32.17494 -64.60728,34.68206 -4.19888,0.45854 -8.84076,1.0799 -10.31526,1.3808 -1.66788,0.34038 -3.6461,-0.53148 -5.23522,-2.3073 z m -263.33206,-29.129 c -8.1575,-13.39502 -14.8318,-24.60966 -14.8318,-24.92142 0,-0.31176 2.03982,0.81742 4.53294,2.5093 15.89424,10.7861 37.69184,8.38192 51.78552,-5.71176 6.91538,-6.91538 10.2107,-14.49716 11.14506,-25.64218 0.50702,-6.04764 1.27988,-8.91936 2.40044,-8.91936 0.90896,0 5.49434,6.3761 10.18972,14.16914 9.44652,15.67854 12.53518,18.24166 17.81388,14.78292 4.8763,-3.19506 4.10388,-7.46408 -3.59212,-19.85342 -3.7645,-6.06024 -8.13176,-13.17906 -9.70498,-15.8196 -4.12922,-6.93048 -7.22806,-8.63904 -15.66882,-8.63904 -6.9126,0 -7.764,-0.36222 -14.9943,-6.37934 -10.28506,-8.55932 -13.2891,-12.78254 -18.22422,-25.62066 -2.30032,-5.984 -4.88108,-11.9405 -5.735,-13.23668 -1.29306,-1.96272 -1.01796,-3.13958 1.6457,-7.04 2.62512,-3.84396 3.06582,-5.66838 2.459,-10.1797 l -0.73932,-5.4964 10.54324,8.1775 c 58.35714,45.26262 80.6395042,62.45718 86.063264,66.41216 3.52,2.56676 8.02496,6.37378 10.01104,8.46006 3.44442,3.61818 3.5421,4.0514 2.1169,9.38814 -7.58512,28.4026 -32.7228998,56.68028 -61.829664,69.55268 -9.10056,4.0247 -30.69562,8.36224 -41.63262,8.36224 h -8.92204 z m 2.4863,-30.1662 c -11.19248,-4.09738 -17.24488,-13.8202 -17.29,-27.77534 -0.0202,-6.2635 -0.47568,-8.60616 -1.6281,-8.37456 -3.29286,0.66172 -8.64002,-1.58612 -8.64002,-3.63208 0,-1.92978 0.1836,-1.92786 2.3408,0.0244 6.05054,5.47562 11.73922,0.45164 11.73922,-10.3676 0,-8.2825 2.22336,-13.80992 7.58292,-18.8516 3.38688,-3.18598 4.25672,-3.5036 5.25806,-1.92 2.10946,3.33616 1.43254,6.37752 -1.41946,6.37752 -1.46214,0 -4.34214,1.6837 -6.4,3.74154 -3.0649,3.0649 -3.74152,4.8203 -3.74152,9.70668 0,3.28082 0.432,5.76982 0.96,5.53112 0.528,-0.2387 4.08462,-2.0754 7.9036,-4.08154 18.97574,-9.96814 40.53798,2.95 40.29686,24.1422 -0.099,8.69064 -2.15868,13.45478 -8.41602,19.46556 -7.69662,7.39332 -18.5386,9.67732 -28.54634,6.01366 z m 230.37028,0.0272 c -6.16268,-3.21334 -12.24212,-8.26774 -13.64326,-11.3429 -0.89498,-1.96428 -0.85568,-4.50198 0.1262,-8.14836 1.36772,-5.07932 1.59432,-5.26366 5.54734,-4.51256 7.99524,1.51914 15.8679,6.58476 20.95982,13.48648 3.99014,5.40832 3.78412,8.22054 -0.7749,10.57812 -4.76356,2.46332 -7.3995,2.4502 -12.21518,-0.0608 z m 43.87096,-0.61332 -4.76066,-2.51382 3.8796,-6.7096 c 2.13376,-3.69028 4.95082,-7.6293 6.2601,-8.75338 2.67414,-2.29582 17.0207,-5.71648 18.95684,-4.51988 1.97602,1.22126 3.07102,9.47182 1.61754,12.1877 -1.653,3.08864 -16.28424,12.9554 -19.09862,12.87936 -1.15178,-0.0312 -4.23644,-1.18778 -6.8548,-2.57038 z m -27.97164,-37.51258 c -1.32938,-2.18596 -3.1154,-7.09508 -3.96894,-10.90914 l -1.5519,-6.93466 5.04656,-4.24952 c 2.77562,-2.33726 6.90618,-5.25532 9.17902,-6.4846 l 4.13244,-2.23506 7.30368,5.16442 c 10.2931,7.27822 10.4595,7.71632 7.00518,18.44166 -1.61244,5.00648 -3.60718,9.31176 -4.43272,9.56728 -0.82556,0.2555 -5.72994,0.72322 -10.89866,1.03934 -9.38074,0.57374 -9.40196,0.56764 -11.81466,-3.39972 z m 220.4156,-3.70052 c -2.61598,-4.10956 -2.61746,-4.16496 -0.1226,-4.56942 3.32586,-0.53918 7.08902,-5.8152 15.22848,-21.35058 3.68848,-7.04 7.80984,-13.936 9.15858,-15.32444 2.44076,-2.51258 2.45218,-2.51258 2.43708,0 -0.0254,4.21798 -3.26354,14.98582 -6.34058,21.08444 -3.3004,6.54132 -15.6132,24.26736 -16.87854,24.2991 -0.45886,0.012 -2.02594,-1.8511 -3.4824,-4.1391 z m -260.83024,-8.94264 c -5.63388,-5.99954 -5.87154,-7.71858 -2.39234,-17.3037 3.65752,-10.0763 5.87888,-12.0813 12.81928,-11.57048 l 5.12,0.37682 0.82068,7.64312 c 0.45136,4.2037 0.2833,9.05656 -0.37352,10.7841 -1.0766,2.83168 -9.401,13.07792 -11.30108,13.91014 -0.42364,0.1856 -2.53548,-1.54244 -4.69302,-3.84 z m 97.51626,2.0891 c -5.41026,-5.41026 -10.50698,-21.6036 -8.86218,-28.157 0.6379,-2.54158 1.57806,-3.06946 5.46682,-3.06946 6.61378,0 9.79408,2.74946 12.95622,11.20104 3.24658,8.67724 2.68466,13.42212 -2.1924,18.51266 -3.9698,4.14358 -4.60686,4.27438 -7.36846,1.51276 z m -55.08544,-42.91904 c -3.51788,-1.42614 -6.6194,-2.81628 -6.8923,-3.08916 -0.87992,-0.87992 2.74048,-8.84688 4.77066,-10.49826 2.03178,-1.65264 17.6531,-2.2044 22.86304,-0.80754 2.96232,0.79424 6.36024,8.29156 4.85888,10.72082 -1.54572,2.50102 -10.78646,6.40666 -14.99316,6.33692 -2.31606,-0.0384 -7.08926,-1.23664 -10.60712,-2.66278 z M 406.89856,251.96 c 0,-0.79324 1.97628,-0.9791 5.0999,-0.47962 6.67214,1.06692 10.88252,-1.64002 12.37648,-7.95712 l 1.1208,-4.7392 5.46288,7.23554 5.46288,7.23552 h -14.76148 c -9.10258,0 -14.76146,-0.49648 -14.76146,-1.29512 z"
       id="path66"
       inkscape:connector-curvature="0"
       inkscape:export-xdpi="96.690697"
       inkscape:export-ydpi="96.690697" />
  </g>
</svg>
